<mxfile host="Electron" agent="Mozilla/5.0 (Windows NT 10.0; Win64; x64) AppleWebKit/537.36 (KHTML, like Gecko) draw.io/27.0.2 Chrome/134.0.6998.205 Electron/35.3.0 Safari/537.36" version="27.0.2">
  <diagram name="Страница — 1" id="jierD48NcWAZ6zly3-gx">
    <mxGraphModel dx="1642" dy="1650" grid="1" gridSize="10" guides="1" tooltips="1" connect="1" arrows="1" fold="1" page="1" pageScale="1" pageWidth="827" pageHeight="1169" math="0" shadow="0">
      <root>
        <mxCell id="0" />
        <mxCell id="1" parent="0" />
        <mxCell id="XQbATnQLrnAipmJMfX9G-1" value="" style="whiteSpace=wrap;html=1;" parent="1" vertex="1">
          <mxGeometry x="40" y="40" width="250" height="210" as="geometry" />
        </mxCell>
        <mxCell id="XQbATnQLrnAipmJMfX9G-2" value="Фронт&lt;div&gt;офис&lt;/div&gt;" style="text;html=1;align=center;verticalAlign=middle;resizable=0;points=[];autosize=1;strokeColor=none;fillColor=none;" parent="1" vertex="1">
          <mxGeometry x="-20" y="40" width="60" height="40" as="geometry" />
        </mxCell>
        <mxCell id="XQbATnQLrnAipmJMfX9G-4" value="Бэк&lt;div&gt;офис&lt;/div&gt;" style="text;html=1;align=center;verticalAlign=middle;resizable=0;points=[];autosize=1;strokeColor=none;fillColor=none;" parent="1" vertex="1">
          <mxGeometry x="-10" y="80" width="50" height="40" as="geometry" />
        </mxCell>
        <mxCell id="XQbATnQLrnAipmJMfX9G-5" value="CC (call center)" style="text;html=1;align=center;verticalAlign=middle;resizable=0;points=[];autosize=1;strokeColor=none;fillColor=none;" parent="1" vertex="1">
          <mxGeometry x="-70" y="130" width="110" height="30" as="geometry" />
        </mxCell>
        <mxCell id="XQbATnQLrnAipmJMfX9G-6" value="Кредитный отдел" style="text;html=1;align=center;verticalAlign=middle;resizable=0;points=[];autosize=1;strokeColor=none;fillColor=none;" parent="1" vertex="1">
          <mxGeometry x="-80" y="170" width="120" height="30" as="geometry" />
        </mxCell>
        <mxCell id="XQbATnQLrnAipmJMfX9G-9" value="Открытие&lt;div&gt;&lt;span style=&quot;background-color: transparent; color: light-dark(rgb(0, 0, 0), rgb(255, 255, 255));&quot;&gt;депозита&lt;/span&gt;&lt;/div&gt;" style="text;html=1;align=center;verticalAlign=middle;resizable=0;points=[];autosize=1;strokeColor=none;fillColor=none;" parent="1" vertex="1">
          <mxGeometry x="40" y="5" width="80" height="40" as="geometry" />
        </mxCell>
        <mxCell id="XQbATnQLrnAipmJMfX9G-10" value="Выдача&lt;div&gt;&lt;span style=&quot;background-color: transparent; color: light-dark(rgb(0, 0, 0), rgb(255, 255, 255));&quot;&gt;кредита&lt;/span&gt;&lt;/div&gt;" style="text;html=1;align=center;verticalAlign=middle;resizable=0;points=[];autosize=1;strokeColor=none;fillColor=none;" parent="1" vertex="1">
          <mxGeometry x="130" y="5" width="70" height="40" as="geometry" />
        </mxCell>
        <mxCell id="XQbATnQLrnAipmJMfX9G-11" value="&lt;font style=&quot;font-size: 8px;&quot;&gt;Управление&lt;/font&gt;&lt;div&gt;&lt;font style=&quot;font-size: 8px;&quot;&gt;договорами/заявками&lt;/font&gt;&lt;/div&gt;" style="text;html=1;align=center;verticalAlign=middle;resizable=0;points=[];autosize=1;strokeColor=none;fillColor=none;" parent="1" vertex="1">
          <mxGeometry x="197" width="100" height="40" as="geometry" />
        </mxCell>
        <mxCell id="XQbATnQLrnAipmJMfX9G-12" value="" style="endArrow=none;html=1;rounded=0;exitX=0.994;exitY=0.876;exitDx=0;exitDy=0;exitPerimeter=0;" parent="1" source="XQbATnQLrnAipmJMfX9G-9" edge="1">
          <mxGeometry width="50" height="50" relative="1" as="geometry">
            <mxPoint x="150" y="150" as="sourcePoint" />
            <mxPoint x="120" y="250" as="targetPoint" />
          </mxGeometry>
        </mxCell>
        <mxCell id="XQbATnQLrnAipmJMfX9G-13" value="" style="endArrow=none;html=1;rounded=0;exitX=0.994;exitY=0.876;exitDx=0;exitDy=0;exitPerimeter=0;entryX=0.639;entryY=0.998;entryDx=0;entryDy=0;entryPerimeter=0;" parent="1" edge="1" target="XQbATnQLrnAipmJMfX9G-1">
          <mxGeometry width="50" height="50" relative="1" as="geometry">
            <mxPoint x="200" y="40" as="sourcePoint" />
            <mxPoint x="198" y="260" as="targetPoint" />
          </mxGeometry>
        </mxCell>
        <mxCell id="XQbATnQLrnAipmJMfX9G-14" value="" style="endArrow=none;html=1;rounded=0;exitX=0.999;exitY=0.01;exitDx=0;exitDy=0;exitPerimeter=0;entryX=1;entryY=0.25;entryDx=0;entryDy=0;" parent="1" source="XQbATnQLrnAipmJMfX9G-4" target="XQbATnQLrnAipmJMfX9G-1" edge="1">
          <mxGeometry width="50" height="50" relative="1" as="geometry">
            <mxPoint x="120" y="130" as="sourcePoint" />
            <mxPoint x="170" y="80" as="targetPoint" />
          </mxGeometry>
        </mxCell>
        <mxCell id="XQbATnQLrnAipmJMfX9G-15" value="" style="endArrow=none;html=1;rounded=0;exitX=0.999;exitY=0.01;exitDx=0;exitDy=0;exitPerimeter=0;entryX=1.001;entryY=0.198;entryDx=0;entryDy=0;entryPerimeter=0;" parent="1" edge="1">
          <mxGeometry width="50" height="50" relative="1" as="geometry">
            <mxPoint x="40" y="120" as="sourcePoint" />
            <mxPoint x="290" y="120" as="targetPoint" />
          </mxGeometry>
        </mxCell>
        <mxCell id="XQbATnQLrnAipmJMfX9G-16" value="" style="endArrow=none;html=1;rounded=0;exitX=0.999;exitY=0.01;exitDx=0;exitDy=0;exitPerimeter=0;entryX=1.001;entryY=0.198;entryDx=0;entryDy=0;entryPerimeter=0;" parent="1" edge="1">
          <mxGeometry width="50" height="50" relative="1" as="geometry">
            <mxPoint x="40" y="160" as="sourcePoint" />
            <mxPoint x="290" y="160" as="targetPoint" />
          </mxGeometry>
        </mxCell>
        <mxCell id="XQbATnQLrnAipmJMfX9G-18" value="АБС" style="rounded=1;whiteSpace=wrap;html=1;fillColor=#E6E6E6;" parent="1" vertex="1">
          <mxGeometry x="50" y="50" width="227" height="60" as="geometry" />
        </mxCell>
        <mxCell id="XQbATnQLrnAipmJMfX9G-19" value="АБС" style="rounded=1;whiteSpace=wrap;html=1;fillColor=#E6E6E6;" parent="1" vertex="1">
          <mxGeometry x="210" y="90" width="67" height="50" as="geometry" />
        </mxCell>
        <mxCell id="XQbATnQLrnAipmJMfX9G-21" value="&lt;font style=&quot;line-height: 80%; font-size: 4px;&quot;&gt;Внешняя система вендорного CC&lt;/font&gt;" style="rounded=1;whiteSpace=wrap;html=1;fillColor=#E6E6E6;" parent="1" vertex="1">
          <mxGeometry x="210" y="135" width="67" height="20" as="geometry" />
        </mxCell>
        <mxCell id="XQbATnQLrnAipmJMfX9G-22" value="АБС" style="rounded=1;whiteSpace=wrap;html=1;fillColor=#E6E6E6;" parent="1" vertex="1">
          <mxGeometry x="130" y="165" width="60" height="30" as="geometry" />
        </mxCell>
        <mxCell id="XQbATnQLrnAipmJMfX9G-23" value="Landscape AS IS" style="text;html=1;align=center;verticalAlign=middle;resizable=0;points=[];autosize=1;strokeColor=none;fillColor=none;" parent="1" vertex="1">
          <mxGeometry x="100" y="-35" width="120" height="30" as="geometry" />
        </mxCell>
        <mxCell id="xdatKskmpnr0JyA16xNC-3" value="" style="endArrow=none;html=1;rounded=0;exitX=0.999;exitY=0.01;exitDx=0;exitDy=0;exitPerimeter=0;entryX=1.001;entryY=0.198;entryDx=0;entryDy=0;entryPerimeter=0;" edge="1" parent="1">
          <mxGeometry width="50" height="50" relative="1" as="geometry">
            <mxPoint x="40" y="200" as="sourcePoint" />
            <mxPoint x="290" y="200" as="targetPoint" />
          </mxGeometry>
        </mxCell>
        <mxCell id="xdatKskmpnr0JyA16xNC-5" value="&lt;span style=&quot;text-wrap-mode: nowrap;&quot;&gt;Интернет-банк&lt;/span&gt;" style="rounded=1;whiteSpace=wrap;html=1;fillColor=#E6E6E6;" vertex="1" parent="1">
          <mxGeometry x="58.5" y="216.5" width="210" height="30" as="geometry" />
        </mxCell>
        <mxCell id="xdatKskmpnr0JyA16xNC-8" value="IT-отдел" style="text;html=1;align=center;verticalAlign=middle;resizable=0;points=[];autosize=1;strokeColor=none;fillColor=none;" vertex="1" parent="1">
          <mxGeometry x="-30" y="200" width="70" height="30" as="geometry" />
        </mxCell>
        <mxCell id="xdatKskmpnr0JyA16xNC-9" value="&lt;span style=&quot;text-wrap-mode: nowrap;&quot;&gt;&lt;font style=&quot;font-size: 6px;&quot;&gt;SMS шлюз&lt;/font&gt;&lt;/span&gt;" style="rounded=1;whiteSpace=wrap;html=1;fillColor=#E6E6E6;" vertex="1" parent="1">
          <mxGeometry x="180" y="201.25" width="50" height="27.5" as="geometry" />
        </mxCell>
      </root>
    </mxGraphModel>
  </diagram>
</mxfile>
